<mxfile host="app.diagrams.net" modified="2022-10-11T14:18:48.788Z" agent="5.0 (Macintosh; Intel Mac OS X 10_15_7) AppleWebKit/537.36 (KHTML, like Gecko) Chrome/105.0.0.0 Safari/537.36" etag="-ErhNCADbVZFU3qRZRxW" version="20.4.0" type="github">
  <diagram id="W5z2iIQezchsIUy5hqy7" name="Page-1">
    <mxGraphModel dx="1426" dy="794" grid="1" gridSize="10" guides="1" tooltips="1" connect="1" arrows="1" fold="1" page="1" pageScale="1" pageWidth="850" pageHeight="1100" math="0" shadow="0">
      <root>
        <mxCell id="0" />
        <mxCell id="1" parent="0" />
        <mxCell id="PY7woh7BMV2at_6MfLpq-1" value="&lt;font style=&quot;font-size: 16px;&quot;&gt;Genesis block&lt;/font&gt;" style="rounded=1;whiteSpace=wrap;html=1;fillColor=#f8cecc;strokeColor=#b85450;" vertex="1" parent="1">
          <mxGeometry y="380" width="120" height="60" as="geometry" />
        </mxCell>
        <mxCell id="PY7woh7BMV2at_6MfLpq-3" value="" style="edgeStyle=orthogonalEdgeStyle;rounded=0;orthogonalLoop=1;jettySize=auto;html=1;strokeWidth=1.5;fontSize=16;dashed=1;" edge="1" parent="1" source="PY7woh7BMV2at_6MfLpq-4" target="PY7woh7BMV2at_6MfLpq-1">
          <mxGeometry relative="1" as="geometry" />
        </mxCell>
        <mxCell id="PY7woh7BMV2at_6MfLpq-4" value="12" style="whiteSpace=wrap;html=1;aspect=fixed;fontSize=16;fillColor=#f5f5f5;fontColor=#333333;strokeColor=#666666;" vertex="1" parent="1">
          <mxGeometry x="180" y="380" width="60" height="60" as="geometry" />
        </mxCell>
        <mxCell id="PY7woh7BMV2at_6MfLpq-5" value="8" style="whiteSpace=wrap;html=1;aspect=fixed;fontSize=16;fillColor=#f5f5f5;fontColor=#333333;strokeColor=#666666;" vertex="1" parent="1">
          <mxGeometry x="320" y="380" width="60" height="60" as="geometry" />
        </mxCell>
        <mxCell id="PY7woh7BMV2at_6MfLpq-6" value="7" style="whiteSpace=wrap;html=1;aspect=fixed;fontSize=16;fillColor=#f5f5f5;fontColor=#333333;strokeColor=#666666;" vertex="1" parent="1">
          <mxGeometry x="440" y="380" width="60" height="60" as="geometry" />
        </mxCell>
        <mxCell id="PY7woh7BMV2at_6MfLpq-7" value="" style="edgeStyle=orthogonalEdgeStyle;rounded=0;orthogonalLoop=1;jettySize=auto;html=1;strokeWidth=1.5;fontSize=16;dashed=1;" edge="1" parent="1">
          <mxGeometry relative="1" as="geometry">
            <mxPoint x="440" y="409.5" as="sourcePoint" />
            <mxPoint x="380" y="409.5" as="targetPoint" />
          </mxGeometry>
        </mxCell>
        <mxCell id="PY7woh7BMV2at_6MfLpq-8" value="&lt;font style=&quot;font-size: 26px;&quot;&gt;... ...&lt;/font&gt;" style="text;html=1;strokeColor=none;fillColor=none;align=center;verticalAlign=middle;whiteSpace=wrap;rounded=0;fontSize=16;" vertex="1" parent="1">
          <mxGeometry x="250" y="395" width="60" height="30" as="geometry" />
        </mxCell>
        <mxCell id="PY7woh7BMV2at_6MfLpq-11" value="2" style="whiteSpace=wrap;html=1;aspect=fixed;fontSize=16;" vertex="1" parent="1">
          <mxGeometry x="590" y="320" width="60" height="60" as="geometry" />
        </mxCell>
        <mxCell id="PY7woh7BMV2at_6MfLpq-12" value="5" style="whiteSpace=wrap;html=1;aspect=fixed;fontSize=16;fillColor=#f5f5f5;fontColor=#333333;strokeColor=#666666;" vertex="1" parent="1">
          <mxGeometry x="550" y="445" width="60" height="60" as="geometry" />
        </mxCell>
        <mxCell id="PY7woh7BMV2at_6MfLpq-13" value="3" style="whiteSpace=wrap;html=1;aspect=fixed;fontSize=16;fillColor=#f5f5f5;fontColor=#333333;strokeColor=#666666;" vertex="1" parent="1">
          <mxGeometry x="700" y="510" width="60" height="60" as="geometry" />
        </mxCell>
        <mxCell id="PY7woh7BMV2at_6MfLpq-14" value="2" style="whiteSpace=wrap;html=1;aspect=fixed;fontSize=16;" vertex="1" parent="1">
          <mxGeometry x="720" y="410" width="60" height="60" as="geometry" />
        </mxCell>
        <mxCell id="PY7woh7BMV2at_6MfLpq-15" value="1" style="whiteSpace=wrap;html=1;aspect=fixed;fontSize=16;" vertex="1" parent="1">
          <mxGeometry x="730" y="320" width="60" height="60" as="geometry" />
        </mxCell>
        <mxCell id="PY7woh7BMV2at_6MfLpq-16" value="" style="endArrow=classic;html=1;rounded=0;dashed=1;strokeWidth=1.5;fontSize=16;entryX=1;entryY=0.5;entryDx=0;entryDy=0;exitX=0;exitY=0.5;exitDx=0;exitDy=0;" edge="1" parent="1" source="PY7woh7BMV2at_6MfLpq-11" target="PY7woh7BMV2at_6MfLpq-6">
          <mxGeometry width="50" height="50" relative="1" as="geometry">
            <mxPoint x="550" y="400" as="sourcePoint" />
            <mxPoint x="600" y="350" as="targetPoint" />
          </mxGeometry>
        </mxCell>
        <mxCell id="PY7woh7BMV2at_6MfLpq-17" value="" style="endArrow=classic;html=1;rounded=0;dashed=1;strokeWidth=1.5;fontSize=16;entryX=1;entryY=0.5;entryDx=0;entryDy=0;exitX=0;exitY=0.5;exitDx=0;exitDy=0;" edge="1" parent="1" source="PY7woh7BMV2at_6MfLpq-12" target="PY7woh7BMV2at_6MfLpq-6">
          <mxGeometry width="50" height="50" relative="1" as="geometry">
            <mxPoint x="600" y="360" as="sourcePoint" />
            <mxPoint x="510" y="420" as="targetPoint" />
          </mxGeometry>
        </mxCell>
        <mxCell id="PY7woh7BMV2at_6MfLpq-18" value="" style="endArrow=classic;html=1;rounded=0;dashed=1;strokeWidth=1.5;fontSize=16;entryX=1;entryY=0.5;entryDx=0;entryDy=0;exitX=0;exitY=0.5;exitDx=0;exitDy=0;" edge="1" parent="1" source="PY7woh7BMV2at_6MfLpq-15" target="PY7woh7BMV2at_6MfLpq-11">
          <mxGeometry width="50" height="50" relative="1" as="geometry">
            <mxPoint x="600" y="360" as="sourcePoint" />
            <mxPoint x="510" y="420" as="targetPoint" />
          </mxGeometry>
        </mxCell>
        <mxCell id="PY7woh7BMV2at_6MfLpq-19" value="" style="endArrow=classic;html=1;rounded=0;dashed=1;strokeWidth=1.5;fontSize=16;entryX=1;entryY=0.5;entryDx=0;entryDy=0;exitX=0;exitY=0.5;exitDx=0;exitDy=0;" edge="1" parent="1" source="PY7woh7BMV2at_6MfLpq-14" target="PY7woh7BMV2at_6MfLpq-12">
          <mxGeometry width="50" height="50" relative="1" as="geometry">
            <mxPoint x="600" y="360" as="sourcePoint" />
            <mxPoint x="510" y="420" as="targetPoint" />
          </mxGeometry>
        </mxCell>
        <mxCell id="PY7woh7BMV2at_6MfLpq-20" value="" style="endArrow=classic;html=1;rounded=0;dashed=1;strokeWidth=1.5;fontSize=16;entryX=1;entryY=0.5;entryDx=0;entryDy=0;exitX=0;exitY=0.5;exitDx=0;exitDy=0;" edge="1" parent="1" source="PY7woh7BMV2at_6MfLpq-13" target="PY7woh7BMV2at_6MfLpq-12">
          <mxGeometry width="50" height="50" relative="1" as="geometry">
            <mxPoint x="710" y="470" as="sourcePoint" />
            <mxPoint x="620" y="485" as="targetPoint" />
          </mxGeometry>
        </mxCell>
        <mxCell id="PY7woh7BMV2at_6MfLpq-24" value="&lt;font style=&quot;font-size: 16px;&quot;&gt;Liveness: add blocks at any time&lt;/font&gt;" style="text;html=1;strokeColor=none;fillColor=none;align=center;verticalAlign=middle;whiteSpace=wrap;rounded=0;" vertex="1" parent="1">
          <mxGeometry x="270" y="330" width="240" height="30" as="geometry" />
        </mxCell>
        <mxCell id="PY7woh7BMV2at_6MfLpq-25" value="" style="verticalLabelPosition=bottom;verticalAlign=top;html=1;shape=mxgraph.basic.smiley" vertex="1" parent="1">
          <mxGeometry x="800" y="340" width="20" height="20" as="geometry" />
        </mxCell>
        <mxCell id="PY7woh7BMV2at_6MfLpq-26" value="" style="verticalLabelPosition=bottom;verticalAlign=top;html=1;shape=mxgraph.basic.smiley" vertex="1" parent="1">
          <mxGeometry x="790" y="420" width="20" height="20" as="geometry" />
        </mxCell>
        <mxCell id="PY7woh7BMV2at_6MfLpq-27" value="" style="verticalLabelPosition=bottom;verticalAlign=top;html=1;shape=mxgraph.basic.smiley" vertex="1" parent="1">
          <mxGeometry x="790" y="445" width="20" height="20" as="geometry" />
        </mxCell>
        <mxCell id="PY7woh7BMV2at_6MfLpq-28" value="" style="verticalLabelPosition=bottom;verticalAlign=top;html=1;shape=mxgraph.basic.smiley" vertex="1" parent="1">
          <mxGeometry x="770" y="510" width="20" height="20" as="geometry" />
        </mxCell>
        <mxCell id="PY7woh7BMV2at_6MfLpq-29" value="" style="verticalLabelPosition=bottom;verticalAlign=top;html=1;shape=mxgraph.basic.smiley" vertex="1" parent="1">
          <mxGeometry x="770" y="530" width="20" height="20" as="geometry" />
        </mxCell>
        <mxCell id="PY7woh7BMV2at_6MfLpq-30" value="" style="verticalLabelPosition=bottom;verticalAlign=top;html=1;shape=mxgraph.basic.smiley" vertex="1" parent="1">
          <mxGeometry x="770" y="550" width="20" height="20" as="geometry" />
        </mxCell>
        <mxCell id="PY7woh7BMV2at_6MfLpq-32" value="Select the block with the most votes" style="text;html=1;strokeColor=none;fillColor=none;align=center;verticalAlign=middle;whiteSpace=wrap;rounded=0;fontSize=16;" vertex="1" parent="1">
          <mxGeometry x="600" y="560" width="270" height="57.5" as="geometry" />
        </mxCell>
        <mxCell id="PY7woh7BMV2at_6MfLpq-35" value="Safety: all finalized blocks are part of the &lt;b&gt;canonical chain&lt;/b&gt;, and all honest nodes accept by default (malicious nodes need to pay a huge cost to change)" style="text;html=1;strokeColor=none;fillColor=none;align=center;verticalAlign=middle;whiteSpace=wrap;rounded=0;fontSize=16;" vertex="1" parent="1">
          <mxGeometry x="50" y="917.5" width="440" height="105" as="geometry" />
        </mxCell>
        <mxCell id="PY7woh7BMV2at_6MfLpq-37" value="" style="edgeStyle=orthogonalEdgeStyle;rounded=0;orthogonalLoop=1;jettySize=auto;html=1;strokeWidth=1.5;fontSize=16;dashed=1;" edge="1" parent="1" source="PY7woh7BMV2at_6MfLpq-38">
          <mxGeometry relative="1" as="geometry">
            <mxPoint x="120" y="840" as="targetPoint" />
          </mxGeometry>
        </mxCell>
        <mxCell id="PY7woh7BMV2at_6MfLpq-38" value="12" style="whiteSpace=wrap;html=1;aspect=fixed;fontSize=16;fillColor=#f8cecc;strokeColor=#b85450;" vertex="1" parent="1">
          <mxGeometry x="180" y="810" width="60" height="60" as="geometry" />
        </mxCell>
        <mxCell id="PY7woh7BMV2at_6MfLpq-39" value="8" style="whiteSpace=wrap;html=1;aspect=fixed;fontSize=16;fillColor=#f8cecc;strokeColor=#b85450;" vertex="1" parent="1">
          <mxGeometry x="320" y="810" width="60" height="60" as="geometry" />
        </mxCell>
        <mxCell id="PY7woh7BMV2at_6MfLpq-40" value="7" style="whiteSpace=wrap;html=1;aspect=fixed;fontSize=16;fillColor=#f8cecc;strokeColor=#b85450;" vertex="1" parent="1">
          <mxGeometry x="440" y="810" width="60" height="60" as="geometry" />
        </mxCell>
        <mxCell id="PY7woh7BMV2at_6MfLpq-41" value="" style="edgeStyle=orthogonalEdgeStyle;rounded=0;orthogonalLoop=1;jettySize=auto;html=1;strokeWidth=1.5;fontSize=16;dashed=1;" edge="1" parent="1">
          <mxGeometry relative="1" as="geometry">
            <mxPoint x="440" y="839.5" as="sourcePoint" />
            <mxPoint x="380" y="839.5" as="targetPoint" />
          </mxGeometry>
        </mxCell>
        <mxCell id="PY7woh7BMV2at_6MfLpq-42" value="&lt;font style=&quot;font-size: 26px;&quot;&gt;... ...&lt;/font&gt;" style="text;html=1;strokeColor=none;fillColor=none;align=center;verticalAlign=middle;whiteSpace=wrap;rounded=0;fontSize=16;" vertex="1" parent="1">
          <mxGeometry x="250" y="825" width="60" height="30" as="geometry" />
        </mxCell>
        <mxCell id="PY7woh7BMV2at_6MfLpq-43" value="2" style="whiteSpace=wrap;html=1;aspect=fixed;fontSize=16;" vertex="1" parent="1">
          <mxGeometry x="590" y="750" width="60" height="60" as="geometry" />
        </mxCell>
        <mxCell id="PY7woh7BMV2at_6MfLpq-44" value="5" style="whiteSpace=wrap;html=1;aspect=fixed;fontSize=16;fillColor=#f8cecc;strokeColor=#b85450;" vertex="1" parent="1">
          <mxGeometry x="550" y="875" width="60" height="60" as="geometry" />
        </mxCell>
        <mxCell id="PY7woh7BMV2at_6MfLpq-45" value="3" style="whiteSpace=wrap;html=1;aspect=fixed;fontSize=16;fillColor=#f8cecc;strokeColor=#b85450;" vertex="1" parent="1">
          <mxGeometry x="700" y="940" width="60" height="60" as="geometry" />
        </mxCell>
        <mxCell id="PY7woh7BMV2at_6MfLpq-46" value="2" style="whiteSpace=wrap;html=1;aspect=fixed;fontSize=16;" vertex="1" parent="1">
          <mxGeometry x="720" y="840" width="60" height="60" as="geometry" />
        </mxCell>
        <mxCell id="PY7woh7BMV2at_6MfLpq-47" value="1" style="whiteSpace=wrap;html=1;aspect=fixed;fontSize=16;" vertex="1" parent="1">
          <mxGeometry x="730" y="750" width="60" height="60" as="geometry" />
        </mxCell>
        <mxCell id="PY7woh7BMV2at_6MfLpq-48" value="" style="endArrow=classic;html=1;rounded=0;dashed=1;strokeWidth=1.5;fontSize=16;entryX=1;entryY=0.5;entryDx=0;entryDy=0;exitX=0;exitY=0.5;exitDx=0;exitDy=0;" edge="1" parent="1" source="PY7woh7BMV2at_6MfLpq-43" target="PY7woh7BMV2at_6MfLpq-40">
          <mxGeometry width="50" height="50" relative="1" as="geometry">
            <mxPoint x="550" y="830" as="sourcePoint" />
            <mxPoint x="600" y="780" as="targetPoint" />
          </mxGeometry>
        </mxCell>
        <mxCell id="PY7woh7BMV2at_6MfLpq-49" value="" style="endArrow=classic;html=1;rounded=0;dashed=1;strokeWidth=1.5;fontSize=16;entryX=1;entryY=0.5;entryDx=0;entryDy=0;exitX=0;exitY=0.5;exitDx=0;exitDy=0;" edge="1" parent="1" source="PY7woh7BMV2at_6MfLpq-44" target="PY7woh7BMV2at_6MfLpq-40">
          <mxGeometry width="50" height="50" relative="1" as="geometry">
            <mxPoint x="600" y="790" as="sourcePoint" />
            <mxPoint x="510" y="850" as="targetPoint" />
          </mxGeometry>
        </mxCell>
        <mxCell id="PY7woh7BMV2at_6MfLpq-50" value="" style="endArrow=classic;html=1;rounded=0;dashed=1;strokeWidth=1.5;fontSize=16;entryX=1;entryY=0.5;entryDx=0;entryDy=0;exitX=0;exitY=0.5;exitDx=0;exitDy=0;" edge="1" parent="1" source="PY7woh7BMV2at_6MfLpq-47" target="PY7woh7BMV2at_6MfLpq-43">
          <mxGeometry width="50" height="50" relative="1" as="geometry">
            <mxPoint x="600" y="790" as="sourcePoint" />
            <mxPoint x="510" y="850" as="targetPoint" />
          </mxGeometry>
        </mxCell>
        <mxCell id="PY7woh7BMV2at_6MfLpq-51" value="" style="endArrow=classic;html=1;rounded=0;dashed=1;strokeWidth=1.5;fontSize=16;entryX=1;entryY=0.5;entryDx=0;entryDy=0;exitX=0;exitY=0.5;exitDx=0;exitDy=0;" edge="1" parent="1" source="PY7woh7BMV2at_6MfLpq-46" target="PY7woh7BMV2at_6MfLpq-44">
          <mxGeometry width="50" height="50" relative="1" as="geometry">
            <mxPoint x="600" y="790" as="sourcePoint" />
            <mxPoint x="510" y="850" as="targetPoint" />
          </mxGeometry>
        </mxCell>
        <mxCell id="PY7woh7BMV2at_6MfLpq-52" value="" style="endArrow=classic;html=1;rounded=0;dashed=1;strokeWidth=1.5;fontSize=16;entryX=1;entryY=0.5;entryDx=0;entryDy=0;exitX=0;exitY=0.5;exitDx=0;exitDy=0;" edge="1" parent="1" source="PY7woh7BMV2at_6MfLpq-45" target="PY7woh7BMV2at_6MfLpq-44">
          <mxGeometry width="50" height="50" relative="1" as="geometry">
            <mxPoint x="710" y="900" as="sourcePoint" />
            <mxPoint x="620" y="915" as="targetPoint" />
          </mxGeometry>
        </mxCell>
        <mxCell id="PY7woh7BMV2at_6MfLpq-54" value="" style="verticalLabelPosition=bottom;verticalAlign=top;html=1;shape=mxgraph.basic.smiley" vertex="1" parent="1">
          <mxGeometry x="790" y="850" width="20" height="20" as="geometry" />
        </mxCell>
        <mxCell id="PY7woh7BMV2at_6MfLpq-55" value="" style="verticalLabelPosition=bottom;verticalAlign=top;html=1;shape=mxgraph.basic.smiley" vertex="1" parent="1">
          <mxGeometry x="790" y="875" width="20" height="20" as="geometry" />
        </mxCell>
        <mxCell id="PY7woh7BMV2at_6MfLpq-56" value="" style="verticalLabelPosition=bottom;verticalAlign=top;html=1;shape=mxgraph.basic.smiley" vertex="1" parent="1">
          <mxGeometry x="770" y="940" width="20" height="20" as="geometry" />
        </mxCell>
        <mxCell id="PY7woh7BMV2at_6MfLpq-57" value="" style="verticalLabelPosition=bottom;verticalAlign=top;html=1;shape=mxgraph.basic.smiley" vertex="1" parent="1">
          <mxGeometry x="770" y="960" width="20" height="20" as="geometry" />
        </mxCell>
        <mxCell id="PY7woh7BMV2at_6MfLpq-58" value="" style="verticalLabelPosition=bottom;verticalAlign=top;html=1;shape=mxgraph.basic.smiley" vertex="1" parent="1">
          <mxGeometry x="770" y="980" width="20" height="20" as="geometry" />
        </mxCell>
        <mxCell id="PY7woh7BMV2at_6MfLpq-60" value="&lt;font style=&quot;font-size: 16px;&quot;&gt;Genesis block&lt;/font&gt;" style="rounded=1;whiteSpace=wrap;html=1;fillColor=#f8cecc;strokeColor=#b85450;" vertex="1" parent="1">
          <mxGeometry y="810" width="120" height="60" as="geometry" />
        </mxCell>
        <mxCell id="PY7woh7BMV2at_6MfLpq-61" value="After two rounds of voting, Casper FFG will finalize the new blocks" style="text;html=1;strokeColor=none;fillColor=none;align=center;verticalAlign=middle;whiteSpace=wrap;rounded=0;fontSize=16;" vertex="1" parent="1">
          <mxGeometry x="510" y="1120" width="305" height="30" as="geometry" />
        </mxCell>
        <mxCell id="PY7woh7BMV2at_6MfLpq-62" value="" style="endArrow=classic;html=1;rounded=0;strokeColor=#FF6666;strokeWidth=2;fontSize=16;" edge="1" parent="1">
          <mxGeometry width="50" height="50" relative="1" as="geometry">
            <mxPoint x="690" y="1060" as="sourcePoint" />
            <mxPoint x="730" y="1010" as="targetPoint" />
          </mxGeometry>
        </mxCell>
        <mxCell id="PY7woh7BMV2at_6MfLpq-65" value="2/3 validators (by deposits)" style="shape=umlActor;verticalLabelPosition=bottom;verticalAlign=top;html=1;outlineConnect=0;fontSize=16;" vertex="1" parent="1">
          <mxGeometry x="650" y="1020" width="30" height="60" as="geometry" />
        </mxCell>
        <mxCell id="PY7woh7BMV2at_6MfLpq-67" value="finalized" style="shape=callout;whiteSpace=wrap;html=1;perimeter=calloutPerimeter;fontSize=16;direction=east;flipH=1;" vertex="1" parent="1">
          <mxGeometry x="600" y="970" width="90" height="70" as="geometry" />
        </mxCell>
        <mxCell id="PY7woh7BMV2at_6MfLpq-68" value="" style="shape=flexArrow;endArrow=classic;html=1;rounded=0;strokeColor=#000000;strokeWidth=2;fontSize=16;" edge="1" parent="1">
          <mxGeometry width="50" height="50" relative="1" as="geometry">
            <mxPoint x="370" y="490" as="sourcePoint" />
            <mxPoint x="370" y="741" as="targetPoint" />
          </mxGeometry>
        </mxCell>
      </root>
    </mxGraphModel>
  </diagram>
</mxfile>
